HIERARCHY
ROOT Hips
{
  OFFSET 14.7107 39.4347 -4.39026
  CHANNELS 6 Xposition Yposition Zposition Zrotation Xrotation Yrotation
  JOINT LeftHip
  {
    OFFSET 3.43 0 0
    CHANNELS 6 Xposition Yposition Zposition Zrotation Xrotation Yrotation
    JOINT LeftKnee
    {
      OFFSET 0 -18.47 0
      CHANNELS 6 Xposition Yposition Zposition Zrotation Xrotation Yrotation
      JOINT LeftAnkle
      {
        OFFSET 0 -17.95 0
        CHANNELS 6 Xposition Yposition Zposition Zrotation Xrotation Yrotation
        End Site
        {
          OFFSET 0 -3.12 0
        }
      }
    }
  }
  JOINT RightHip
  {
    OFFSET -3.43 0 0
    CHANNELS 6 Xposition Yposition Zposition Zrotation Xrotation Yrotation
    JOINT RightKnee
    {
      OFFSET 0 -18.47 0
      CHANNELS 6 Xposition Yposition Zposition Zrotation Xrotation Yrotation
      JOINT RightAnkle
      {
        OFFSET 0 -17.95 0
        CHANNELS 6 Xposition Yposition Zposition Zrotation Xrotation Yrotation
        End Site
        {
          OFFSET 0 -3.12 0
        }
      }
    }
  }
  JOINT Chest
  {
    OFFSET 0 4.57 0
    CHANNELS 6 Xposition Yposition Zposition Zrotation Xrotation Yrotation
    JOINT CS_BVH
    {
      OFFSET 0 6.57 0
      CHANNELS 6 Xposition Yposition Zposition Zrotation Xrotation Yrotation
      JOINT LeftCollar
      {
        OFFSET 1.06 4.19 1.76
        CHANNELS 6 Xposition Yposition Zposition Zrotation Xrotation Yrotation
        JOINT LeftShoulder
        {
          OFFSET 5.81 0 0
          CHANNELS 6 Xposition Yposition Zposition Zrotation Xrotation Yrotation
          JOINT LeftElbow
          {
            OFFSET 0 -12.08 0
            CHANNELS 6 Xposition Yposition Zposition Zrotation Xrotation Yrotation
            JOINT LeftWrist
            {
              OFFSET 0 -9.82 0
              CHANNELS 6 Xposition Yposition Zposition Zrotation Xrotation Yrotation
              End Site
              {
                OFFSET 0 -7.37 0
              }
            }
          }
        }
      }
      JOINT RightCollar
      {
        OFFSET -1.06 4.19 1.76
        CHANNELS 6 Xposition Yposition Zposition Zrotation Xrotation Yrotation
        JOINT RightShoulder
        {
          OFFSET -6.06 0 0
          CHANNELS 6 Xposition Yposition Zposition Zrotation Xrotation Yrotation
          JOINT RightElbow
          {
            OFFSET 0 -11.08 0
            CHANNELS 6 Xposition Yposition Zposition Zrotation Xrotation Yrotation
            JOINT RightWrist
            {
              OFFSET 0 -9.82 0
              CHANNELS 6 Xposition Yposition Zposition Zrotation Xrotation Yrotation
              End Site
              {
                OFFSET 0 -7.14001 0
              }
            }
          }
        }
      }
      JOINT Neck
      {
        OFFSET 0 4.05 0
        CHANNELS 6 Xposition Yposition Zposition Zrotation Xrotation Yrotation
        JOINT Head
        {
          OFFSET 0 5.19 0
          CHANNELS 6 Xposition Yposition Zposition Zrotation Xrotation Yrotation
          End Site
          {
            OFFSET 0 4.14001 0
          }
        }
      }
    }
  }
}
MOTION
Frames:	9
Frame Time:	0.0333333
-19.9031 38.9264 -9.68907 2.57821 3.79133 23.5205 3.43 9.12756e-010 -1.60032e-011 0.807899 -10.2705 -2.74048 1.57372e-008 -18.47 1.10541e-007 -10.5109 25.9365 13.6699 1.5558e-008 -17.95 3.38894e-008 -1.6722 -11.0739 -0.655548 -3.43 -9.12749e-010 1.60023e-011 -1.16353 -14.6217 1.48307 4.27853e-008 -18.47 -1.42709e-007 -0.971438 28.7087 -13.805 -2.59563e-008 -17.95 2.98131e-008 2.56471 -16.3411 0.653721 -1.05168e-009 4.57 4.29798e-011 1.71352 1.11282 -0.0516204 -1.67976e-009 6.57 2.67812e-010 0.588992 2.22765 0.293943 1.06 4.19 1.76 -0.428775 3.19717 -4.11428 5.81 -5.77685e-010 -2.42139e-010 11.4426 -3.6413 -21.5413 -4.70036e-009 -12.08 6.73172e-010 62.839 -72.2272 93.3199 -1.10605e-009 -9.82 -1.29618e-009 2.14621 12.1595 -0.514471 -1.06 4.19 1.76 4.74424 3.26356 4.99182 -6.06 -5.89036e-008 -4.70616e-010 -22.1469 -2.20766 25.7635 -7.10448e-009 -11.08 -5.62306e-011 -80.7951 -69.0442 -104.394 -1.10928e-009 -9.82 1.29577e-009 -12.9739 13.765 2.56491 4.66962e-010 4.05 1.19922e-010 -0.985118 -2.78972 0.079573 3.38399e-009 5.19 -2.27068e-010 1.55159 -0.842579 -2.09861 
-19.7581 38.9986 -9.4161 1.66873 1.13761 24.6482 3.43 9.12756e-010 -1.60032e-011 2.77035 -9.19325 -1.9295 1.57372e-008 -18.47 1.10541e-007 -10.3856 27.8505 13.0568 1.5558e-008 -17.95 3.38894e-008 -2.14763 -10.8405 -0.637582 -3.43 -9.12749e-010 1.60023e-011 1.08405 -10.2935 1.58273 4.27853e-008 -18.47 -1.42709e-007 -1.69341 26.028 -14.8685 -2.59563e-008 -17.95 2.98131e-008 3.06542 -15.7522 0.607611 -1.05168e-009 4.57 4.29798e-011 2.70511 1.53272 -0.430834 -1.67976e-009 6.57 2.67812e-010 1.84277 3.05968 -0.334105 1.06 4.19 1.76 1.93653 4.28543 -4.86687 5.81 -5.77685e-010 -2.42139e-010 7.86124 -1.01074 -19.1102 -4.70036e-009 -12.08 6.73172e-010 51.7512 -67.4872 73.6728 -1.10605e-009 -9.82 -1.29618e-009 -1.74338 12.1127 -1.05767 -1.06 4.19 1.76 6.16318 4.32691 4.4564 -6.06 -5.89036e-008 -4.70616e-010 -23.2029 -2.12914 25.3644 -7.10448e-009 -11.08 -5.62306e-011 -72.4823 -68.8897 -96.2641 -1.10928e-009 -9.82 1.29577e-009 -13.2738 13.643 2.616 4.66962e-010 4.05 1.19922e-010 0.223754 -2.34441 -0.58769 3.38399e-009 5.19 -2.27068e-010 1.0723 -0.458095 -2.01715 
-19.7572 39.0623 -9.3374 2.51107 1.14981 24.5239 3.43 9.12756e-010 -1.60032e-011 2.12708 -9.13356 -1.82503 1.57372e-008 -18.47 1.10541e-007 -10.15 27.4928 14.8696 1.5558e-008 -17.95 3.38894e-008 -3.20068 -9.6326 -0.498925 -3.43 -9.12749e-010 1.60023e-011 0.137682 -9.80092 1.08318 4.27853e-008 -18.47 -1.42709e-007 -1.41353 25.7854 -14.1826 -2.59563e-008 -17.95 2.98131e-008 2.66706 -15.7776 0.595637 -1.05168e-009 4.57 4.29798e-011 2.48612 1.61993 -0.425796 -1.67976e-009 6.57 2.67812e-010 1.60809 3.23844 -0.330266 1.06 4.19 1.76 2.12611 4.5175 -4.92217 5.81 -5.77685e-010 -2.42139e-010 7.07754 1.06643 -17.2793 -4.70036e-009 -12.08 6.73172e-010 43.3905 -61.2865 55.2653 -1.10605e-009 -9.82 -1.29618e-009 -6.01964 12.2402 -1.65937 -1.06 4.19 1.76 5.94433 4.57779 4.34849 -6.06 -5.89036e-008 -4.70616e-010 -23.4456 -2.05752 24.3692 -7.10448e-009 -11.08 -5.62306e-011 -59.0951 -68.5234 -76.9536 -1.10928e-009 -9.82 1.29577e-009 -10.7691 14.3452 2.14523 4.66962e-010 4.05 1.19922e-010 0.0404192 -2.71202 -0.607293 3.38399e-009 5.19 -2.27068e-010 1.262 0.837463 -2.11212 
-19.6932 39.0779 -9.25809 2.68615 0.83978 25.0354 3.43 9.12756e-010 -1.60032e-011 2.14567 -9.48478 -1.9188 1.57372e-008 -18.47 1.10541e-007 -9.85165 27.9782 15.5909 1.5558e-008 -17.95 3.38894e-008 -3.93101 -8.94407 -0.407262 -3.43 -9.12749e-010 1.60023e-011 -0.0123434 -9.02765 0.767392 4.27853e-008 -18.47 -1.42709e-007 -1.25606 25.5375 -14.181 -2.59563e-008 -17.95 2.98131e-008 2.61675 -15.9558 0.604736 -1.05168e-009 4.57 4.29798e-011 2.58898 1.65125 -0.536947 -1.67976e-009 6.57 2.67812e-010 1.75227 3.30409 -0.542311 1.06 4.19 1.76 3.31781 4.56171 -5.25728 5.81 -5.77685e-010 -2.42139e-010 4.02541 2.47283 -15.0946 -4.70036e-009 -12.08 6.73172e-010 35.3903 -55.2655 45.7546 -1.10605e-009 -9.82 -1.29618e-009 -3.44241 13.8619 -1.36562 -1.06 4.19 1.76 6.0404 4.65123 4.04732 -6.06 -5.89036e-008 -4.70616e-010 -23.5771 -2.13505 24.0373 -7.10448e-009 -11.08 -5.62306e-011 -47.1641 -66.6203 -63.1274 -1.10928e-009 -9.82 1.29577e-009 -10.7695 14.7116 2.17497 4.66962e-010 4.05 1.19922e-010 0.205963 -2.60582 -0.943065 3.38399e-009 5.19 -2.27068e-010 1.29815 1.23432 -2.24897 
-19.6325 39.0952 -9.19097 3.37953 1.01893 24.8306 3.43 9.12756e-010 -1.60032e-011 1.62054 -9.65343 -2.04782 1.57372e-008 -18.47 1.10541e-007 -9.63232 27.8138 16.6497 1.5558e-008 -17.95 3.38894e-008 -4.74093 -8.05651 -0.277649 -3.43 -9.12749e-010 1.60023e-011 -0.885896 -9.13435 0.416052 4.27853e-008 -18.47 -1.42709e-007 -1.27009 25.9384 -13.9994 -2.59563e-008 -17.95 2.98131e-008 2.74001 -16.1198 0.626062 -1.05168e-009 4.57 4.29798e-011 2.43278 1.6034 -0.457765 -1.67976e-009 6.57 2.67812e-010 1.62606 3.2141 -0.400514 1.06 4.19 1.76 3.33048 4.43408 -5.53976 5.81 -5.77685e-010 -2.42139e-010 7.03777 4.17903 -18.2871 -4.70036e-009 -12.08 6.73172e-010 25.4469 -47.7803 35.5625 -1.10605e-009 -9.82 -1.29618e-009 -1.16892 13.6245 -1.06734 -1.06 4.19 1.76 5.20035 4.52979 4.25872 -6.06 -5.89036e-008 -4.70616e-010 -22.2968 -1.90045 22.6284 -7.10448e-009 -11.08 -5.62306e-011 -35.2261 -63.304 -47.4935 -1.10928e-009 -9.82 1.29577e-009 -10.9334 14.6272 2.20399 4.66962e-010 4.05 1.19922e-010 -0.292971 -2.29038 -1.02458 3.38399e-009 5.19 -2.27068e-010 1.27957 1.19164 -2.62786 
-19.5737 39.069 -9.11083 3.51505 0.665622 25.0416 3.43 9.12756e-010 -1.60032e-011 2.04526 -9.87658 -2.08158 1.57372e-008 -18.47 1.10541e-007 -9.50263 28.2964 16.1117 1.5558e-008 -17.95 3.38894e-008 -5.18212 -7.63806 -0.206376 -3.43 -9.12749e-010 1.60023e-011 -0.912687 -8.72961 0.307115 4.27853e-008 -18.47 -1.42709e-007 -1.25421 26.2452 -14.0292 -2.59563e-008 -17.95 2.98131e-008 2.85113 -16.4299 0.656652 -1.05168e-009 4.57 4.29798e-011 2.52258 1.64376 -0.509076 -1.67976e-009 6.57 2.67812e-010 1.72711 3.29913 -0.486009 1.06 4.19 1.76 4.03228 4.52307 -5.63578 5.81 -5.77685e-010 -2.42139e-010 6.7249 6.26693 -18.1814 -4.70036e-009 -12.08 6.73172e-010 21.0776 -41.966 30.2554 -1.10605e-009 -9.82 -1.29618e-009 -0.331291 17.3977 -1.21869 -1.06 4.19 1.76 4.99506 4.64218 4.36853 -6.06 -5.89036e-008 -4.70616e-010 -22.7111 -1.81297 22.7574 -7.10448e-009 -11.08 -5.62306e-011 -25.9849 -59.495 -35.6676 -1.10928e-009 -9.82 1.29577e-009 -9.99705 14.8452 2.01546 4.66962e-010 4.05 1.19922e-010 -0.0797278 -2.32192 -1.20988 3.38399e-009 5.19 -2.27068e-010 0.683775 2.10505 -2.45983 
-19.4637 39.0418 -9.05996 3.59593 0.695626 24.893 3.43 9.12756e-010 -1.60032e-011 2.22712 -10.1035 -2.20286 1.57372e-008 -18.47 1.10541e-007 -8.89525 27.9318 15.9065 1.5558e-008 -17.95 3.38894e-008 -5.69498 -7.37538 -0.150527 -3.43 -9.12749e-010 1.60023e-011 -1.19818 -8.79863 0.262877 4.27853e-008 -18.47 -1.42709e-007 -1.07895 26.7068 -13.8255 -2.59563e-008 -17.95 2.98131e-008 2.91166 -16.8197 0.694385 -1.05168e-009 4.57 4.29798e-011 2.45184 1.60845 -0.471363 -1.67976e-009 6.57 2.67812e-010 1.74934 3.23621 -0.433076 1.06 4.19 1.76 4.34074 4.42831 -5.88956 5.81 -5.77685e-010 -2.42139e-010 6.31847 9.89999 -17.207 -4.70036e-009 -12.08 6.73172e-010 20.2825 -39.1518 26.2503 -1.10605e-009 -9.82 -1.29618e-009 -0.855363 21.0644 -1.50728 -1.06 4.19 1.76 5.00239 4.57221 4.53161 -6.06 -5.89036e-008 -4.70616e-010 -22.7621 -1.38771 22.5695 -7.10448e-009 -11.08 -5.62306e-011 -18.663 -55.0692 -25.8283 -1.10928e-009 -9.82 1.29577e-009 -8.35336 15.803 1.7111 4.66962e-010 4.05 1.19922e-010 0.220958 -2.5195 -1.15258 3.38399e-009 5.19 -2.27068e-010 -0.145654 2.93739 -2.07149 
-19.3521 39.0274 -8.99594 3.61054 0.844981 24.7277 3.43 9.12756e-010 -1.60032e-011 2.84406 -10.3259 -2.04227 1.57372e-008 -18.47 1.10541e-007 -8.76272 27.3806 14.7382 1.5558e-008 -17.95 3.38894e-008 -5.87313 -6.94287 -0.0766683 -3.43 -9.12749e-010 1.60023e-011 -1.49843 -8.94891 0.150622 4.27853e-008 -18.47 -1.42709e-007 -0.906127 26.9751 -13.6503 -2.59563e-008 -17.95 2.98131e-008 2.95769 -17.0746 0.719017 -1.05168e-009 4.57 4.29798e-011 2.3658 1.54438 -0.512177 -1.67976e-009 6.57 2.67812e-010 1.65307 3.11269 -0.533424 1.06 4.19 1.76 4.73981 4.22907 -6.21379 5.81 -5.77685e-010 -2.42139e-010 5.29757 14.1956 -15.4574 -4.70036e-009 -12.08 6.73172e-010 20.8785 -37.9168 23.853 -1.10605e-009 -9.82 -1.29618e-009 -2.59392 24.0871 -1.76369 -1.06 4.19 1.76 5.45437 4.42632 4.53469 -6.06 -5.89036e-008 -4.70616e-010 -23.4149 -0.493376 22.5884 -7.10448e-009 -11.08 -5.62306e-011 -13.894 -51.7232 -18.9415 -1.10928e-009 -9.82 1.29577e-009 -6.37765 17.7686 1.34532 4.66962e-010 4.05 1.19922e-010 0.385992 -2.71337 -1.08463 3.38399e-009 5.19 -2.27068e-010 -0.155372 3.71951 -1.78289 
-19.216 39.0293 -8.92038 3.66421 0.60643 24.4993 3.43 9.12756e-010 -1.60032e-011 3.66583 -9.85651 -1.78502 1.57372e-008 -18.47 1.10541e-007 -8.38736 26.3225 12.8014 1.5558e-008 -17.95 3.38894e-008 -5.99471 -6.54637 -0.00521658 -3.43 -9.12749e-010 1.60023e-011 -1.67442 -8.59527 0.19751 4.27853e-008 -18.47 -1.42709e-007 -0.916008 26.9292 -13.2015 -2.59563e-008 -17.95 2.98131e-008 3.08454 -17.1206 0.730026 -1.05168e-009 4.57 4.29798e-011 2.37038 1.57612 -0.524613 -1.67976e-009 6.57 2.67812e-010 1.79152 3.182 -0.54814 1.06 4.19 1.76 4.6766 4.33998 -6.30601 5.81 -5.77685e-010 -2.42139e-010 4.15773 18.0349 -13.5159 -4.70036e-009 -12.08 6.73172e-010 21.688 -37.2575 22.537 -1.10605e-009 -9.82 -1.29618e-009 -4.37691 23.748 -1.80385 -1.06 4.19 1.76 4.86257 4.49775 4.41239 -6.06 -5.89036e-008 -4.70616e-010 -22.6853 0.658847 21.8109 -7.10448e-009 -11.08 -5.62306e-011 -10.7791 -48.8991 -12.5849 -1.10928e-009 -9.82 1.29577e-009 -4.40535 19.832 0.916839 4.66962e-010 4.05 1.19922e-010 0.114229 -2.38375 -0.959338 3.38399e-009 5.19 -2.27068e-010 -0.335588 3.67512 -1.7595 
